<?xml version="1.0" encoding="utf-8"?>
<!-- Generator: Adobe Illustrator 24.3.0, SVG Export Plug-In . SVG Version: 6.00 Build 0)  -->
<svg version="1.1" id="Layer_1" xmlns="http://www.w3.org/2000/svg" xmlns:xlink="http://www.w3.org/1999/xlink" x="0px" y="0px"
	 viewBox="0 0 16 16" style="enable-background:new 0 0 16 16;" xml:space="preserve">
<style type="text/css">
	.st0{fill:#7B61FF;}
</style>
<path class="st0" d="M15.8,4.4c-0.1-0.3-0.3-0.6-0.5-0.8l-2.9-2.9c-0.2-0.2-0.5-0.4-0.8-0.5C11.3,0.1,10.9,0,10.7,0H1
	C0.7,0,0.5,0.1,0.3,0.3C0.1,0.5,0,0.7,0,1v14c0,0.3,0.1,0.5,0.3,0.7C0.5,15.9,0.7,16,1,16h14c0.3,0,0.5-0.1,0.7-0.3
	c0.2-0.2,0.3-0.4,0.3-0.7V5.3C16,5.1,15.9,4.7,15.8,4.4z M6.7,1.7c0-0.1,0-0.2,0.1-0.2C6.8,1.4,6.9,1.3,7,1.3h2c0.1,0,0.2,0,0.2,0.1
	c0.1,0.1,0.1,0.1,0.1,0.2V5c0,0.1,0,0.2-0.1,0.2C9.2,5.3,9.1,5.3,9,5.3H7c-0.1,0-0.2,0-0.2-0.1C6.7,5.2,6.7,5.1,6.7,5V1.7L6.7,1.7z
	 M12,14.7H4v-4h8V14.7z M14.7,14.7h-1.3h0v-4.3c0-0.3-0.1-0.5-0.3-0.7c-0.2-0.2-0.4-0.3-0.7-0.3H3.7C3.4,9.3,3.2,9.4,3,9.6
	c-0.2,0.2-0.3,0.4-0.3,0.7v4.3H1.3V1.3h1.3v4.3c0,0.3,0.1,0.5,0.3,0.7c0.2,0.2,0.4,0.3,0.7,0.3h6c0.3,0,0.5-0.1,0.7-0.3
	c0.2-0.2,0.3-0.4,0.3-0.7V1.3c0.1,0,0.2,0,0.4,0.1c0.2,0.1,0.3,0.1,0.4,0.2l2.9,2.9c0.1,0.1,0.1,0.2,0.2,0.4
	c0.1,0.2,0.1,0.3,0.1,0.4V14.7L14.7,14.7z"/>
</svg>
