<svg xmlns="http://www.w3.org/2000/svg" viewBox="0 0 12 12">
<path d="M7.06127 6.00012L11.7801 1.28127C12.0733 0.988341 12.0733 0.513054 11.7801 0.220127C11.4869 -0.0730501 11.0122 -0.0730501 10.719 0.220127L6.00012 4.93898L1.28102 0.220127C0.987847 -0.0730501 0.51306 -0.0730501 0.219883 0.220127C-0.0732943 0.513054 -0.0732943 0.988341 0.219883 1.28127L4.93898 6.00012L0.219883 10.719C-0.0732943 11.0119 -0.0732943 11.4872 0.219883 11.7801C0.366471 11.9264 0.558587 11.9997 0.750453 11.9997C0.942319 11.9997 1.13444 11.9264 1.28102 11.7799L6.00012 7.06101L10.719 11.7799C10.8656 11.9264 11.0577 11.9997 11.2495 11.9997C11.4414 11.9997 11.6335 11.9264 11.7801 11.7799C12.0733 11.4869 12.0733 11.0116 11.7801 10.7187L7.06127 6.00012Z"/>
</svg>
