<svg xmlns="http://www.w3.org/2000/svg" viewBox="0 0 16 16">
<path d="M14.6533 9.33335H14.6666H14.6533ZM3.56659 8.66669C4.35992 8.66669 4.51325 9.33335 5.78659 9.33335C7.08659 9.33335 7.17992 8.66669 8.00659 8.66669C8.79992 8.66669 8.95325 9.33335 10.2266 9.33335C11.5266 9.33335 11.6199 8.66669 12.4466 8.66669C13.2399 8.66669 13.3799 9.32002 14.6533 9.33335V8.00002C13.8599 8.00002 13.7066 7.33335 12.4333 7.33335C11.1333 7.33335 11.0399 8.00002 10.2133 8.00002C9.41992 8.00002 9.26659 7.33335 7.99325 7.33335C6.69325 7.33335 6.59992 8.00002 5.77325 8.00002C4.97992 8.00002 4.82659 7.33335 3.55325 7.33335C2.25325 7.33335 2.15992 8.00002 1.33325 8.00002V9.33335C2.59992 9.33335 2.77992 8.66669 3.56659 8.66669ZM12.4466 10C11.1466 10 11.0533 10.6667 10.2266 10.6667C9.43325 10.6667 9.27992 10 8.00659 10C6.70659 10 6.60659 10.6667 5.77992 10.6667C4.95325 10.6667 4.85992 10 3.55992 10C2.25992 10 2.15992 10.6667 1.33325 10.6667V12C2.63325 12 2.73992 11.3334 3.55992 11.3334C4.38659 11.3334 4.47992 12 5.77992 12C7.07992 12 7.17992 11.3334 8.00659 11.3334C8.79992 11.3334 8.95325 12 10.2266 12C11.5199 12 11.6199 11.3334 12.4466 11.3334C13.2399 11.3334 13.3933 12 14.6666 12V10.6667C13.8399 10.6667 13.7466 10 12.4466 10ZM3.56659 6.00002C4.35992 6.00002 4.51325 6.66669 5.78659 6.66669C7.08659 6.66669 7.17992 6.00002 8.00659 6.00002C8.79992 6.00002 8.95325 6.66669 10.2266 6.66669C11.5266 6.66669 11.6199 6.00002 12.4466 6.00002C13.2399 6.00002 13.3799 6.65335 14.6533 6.66669V5.33335C13.8599 5.33335 13.7066 4.66669 12.4333 4.66669C11.1333 4.66669 11.0399 5.33335 10.2133 5.33335C9.41992 5.33335 9.26659 4.66669 7.99325 4.66669C6.69325 4.66669 6.59992 5.33335 5.77325 5.33335C4.97992 5.33335 4.82659 4.66669 3.55325 4.66669C2.25325 4.66669 2.15992 5.33335 1.33325 5.33335V6.66669C2.59992 6.66669 2.77992 6.00002 3.56659 6.00002Z"/>
</svg>
