<svg xmlns="http://www.w3.org/2000/svg" viewBox="0 0 16 16" >
<path d="M13.2509 0C11.7283 0 10.5009 1.23714 10.5009 2.75C10.5009 2.89676 10.5123 3.04388 10.5342 3.18457L5.28028 6.0498C4.72891 5.40823 3.91325 5.00098 3.00098 5.00098C1.33442 5.00098 0 6.34712 0 7.99805C0 9.64898 1.33442 10.999 3.00098 10.999C3.91671 10.999 4.72989 10.5913 5.28125 9.94922L10.5342 12.8164C10.5117 12.9571 10.5009 13.1042 10.5009 13.251C10.5009 14.7638 11.7215 16 13.2509 16C14.7748 16 15.9999 14.7638 15.9999 13.251C15.9999 11.7381 14.7735 10.501 13.2509 10.501C12.2344 10.501 11.354 11.0464 10.8753 11.8607L5.79194 9.08984C5.92535 8.75095 6.00189 8.38297 6.00189 7.99805C6.00189 7.61397 5.92573 7.24813 5.79292 6.91016L10.8749 4.13769C11.3536 4.95193 12.233 5.49902 13.2509 5.49902C14.7693 5.49902 15.9999 4.26286 15.9999 2.75C15.9999 1.23714 14.7735 0 13.2509 0V0Z"/>
</svg>
