<svg xmlns="http://www.w3.org/2000/svg" viewBox="0 0 16 16">
<path d="M10.6027 8.70042L9.18848 10.1146L13.1859 14.1121L14.6001 12.6979L10.6027 8.70042Z"/>
<path d="M11.6667 6.6667C12.9534 6.6667 14 5.62003 14 4.33337C14 3.9467 13.8934 3.5867 13.7267 3.2667L11.9267 5.0667L10.9334 4.07337L12.7334 2.27337C12.4134 2.1067 12.0534 2.00003 11.6667 2.00003C10.38 2.00003 9.33336 3.0467 9.33336 4.33337C9.33336 4.6067 9.38669 4.8667 9.47336 5.1067L8.24002 6.34003L7.05336 5.15337L7.52669 4.68003L6.58669 3.74003L8.00002 2.3267C7.22002 1.5467 5.95336 1.5467 5.17336 2.3267L2.81336 4.6867L3.75336 5.6267H1.87336L1.40002 6.10003L3.76002 8.46003L4.23336 7.9867V6.10003L5.17336 7.04003L5.64669 6.5667L6.83336 7.75337L1.89336 12.6934L3.30669 14.1067L10.8934 6.5267C11.1334 6.61337 11.3934 6.6667 11.6667 6.6667Z"/>
</svg>
