<svg xmlns="http://www.w3.org/2000/svg" viewBox="0 0 17 14"> <path d="M14.7236 0H1.72363C0.879883 0 0.223633 0.6875 0.223633 1.5V12.5C0.223633 13.3438 0.879883 14 1.72363 14H14.7236C15.5361 14 16.2236 13.3438 16.2236 12.5V1.5C16.2236 0.6875 15.5361 0 14.7236 0ZM7.47363 12.5H1.91113C1.78613 12.5 1.72363 12.4375 1.72363 12.3125V8.25H7.47363V12.5ZM7.47363 6.75H1.72363V2.5H7.47363V6.75ZM14.5361 12.5H8.97363V8.25H14.7236V12.3125C14.7236 12.4375 14.6299 12.5 14.5361 12.5ZM14.7236 6.75H8.97363V2.5H14.7236V6.75Z"/> </svg>