<svg  xmlns="http://www.w3.org/2000/svg" viewBox="0 0 16 16" >
<path d="M6.76944 6.15384C6.42913 6.15384 6.15405 6.42892 6.15405 6.76922V11.6923C6.15405 12.0326 6.42913 12.3077 6.76944 12.3077C7.10975 12.3077 7.38482 12.0326 7.38482 11.6923V6.76922C7.38482 6.42892 7.10975 6.15384 6.76944 6.15384Z"/>
<path d="M9.23086 6.15384C8.89056 6.15384 8.61548 6.42892 8.61548 6.76922V11.6923C8.61548 12.0326 8.89056 12.3077 9.23086 12.3077C9.57117 12.3077 9.84625 12.0326 9.84625 11.6923V6.76922C9.84625 6.42892 9.57117 6.15384 9.23086 6.15384Z"/>
<path d="M9.84625 0H6.15394C5.47517 0 4.92317 0.552 4.92317 1.23077V2.46154H3.07702H1.23086C0.890555 2.46154 0.615479 2.73662 0.615479 3.07692C0.615479 3.41723 0.890555 3.69231 1.23086 3.69231H2.46163V14.1538C2.46163 15.1717 3.28994 16 4.30779 16H11.6924C12.7102 16 13.5386 15.1717 13.5386 14.1538V3.69231H14.7693C15.1096 3.69231 15.3847 3.41723 15.3847 3.07692C15.3847 2.73662 15.1096 2.46154 14.7693 2.46154H12.9232H11.077V1.23077C11.077 0.552 10.525 0 9.84625 0ZM12.3078 14.1538C12.3078 14.4935 12.0321 14.7692 11.6924 14.7692H4.30779C3.96809 14.7692 3.6924 14.4935 3.6924 14.1538V3.69231H12.3078V14.1538ZM6.15394 2.46154V1.23077H9.84625V2.46154H6.15394Z"/>
</svg>
