<svg xmlns="http://www.w3.org/2000/svg" viewBox="0 0 16 16" >
<path d="M15.7918 4.41651C15.6529 4.08332 15.4862 3.81935 15.2916 3.62496L12.375 0.708252C12.1807 0.513968 11.9167 0.34723 11.5834 0.208258C11.2502 0.0694315 10.9446 0 10.6669 0H1.00016C0.72247 0 0.486301 0.0971603 0.291835 0.291627C0.097368 0.485984 0.000244141 0.722117 0.000244141 0.999952V15C0.000244141 15.278 0.097368 15.5141 0.291835 15.7085C0.486301 15.9028 0.72247 16 1.00016 16H15.0002C15.2782 16 15.5143 15.9028 15.7087 15.7085C15.9029 15.5141 16.0001 15.278 16.0001 15V5.33335C16.0001 5.05547 15.9307 4.74995 15.7918 4.41651ZM6.66691 1.66654C6.66691 1.57627 6.69993 1.4983 6.76593 1.43219C6.83186 1.36637 6.91001 1.33339 7.00027 1.33339H9.00036C9.09041 1.33339 9.16852 1.3663 9.23449 1.43219C9.30064 1.4983 9.33362 1.57627 9.33362 1.66654V4.99991C9.33362 5.09032 9.30042 5.1684 9.23449 5.2344C9.16852 5.30018 9.09041 5.3332 9.00036 5.3332H7.00027C6.91001 5.3332 6.83182 5.30029 6.76593 5.2344C6.69993 5.16829 6.66691 5.09032 6.66691 4.99991V1.66654V1.66654ZM12.0004 14.6668H4.00013V10.6667H12.0004V14.6668ZM14.6672 14.6668H13.3336H13.3334V10.3333C13.3334 10.0554 13.2362 9.81939 13.0418 9.62485C12.8474 9.43046 12.6113 9.33319 12.3336 9.33319H3.66683C3.38903 9.33319 3.15286 9.43046 2.9584 9.62485C2.76404 9.81925 2.66681 10.0554 2.66681 10.3333V14.6668H1.33345V1.33325H2.66677V5.66664C2.66677 5.94447 2.7639 6.1805 2.95836 6.37496C3.15283 6.56932 3.389 6.66659 3.6668 6.66659H9.66702C9.94467 6.66659 10.1811 6.56932 10.3752 6.37496C10.5695 6.18061 10.6669 5.94447 10.6669 5.66664V1.33325C10.771 1.33325 10.9063 1.36791 11.0732 1.43734C11.24 1.50673 11.358 1.57616 11.4274 1.6456L14.3547 4.57281C14.4241 4.64224 14.4935 4.76217 14.5629 4.93223C14.6326 5.10243 14.6672 5.23615 14.6672 5.33335V14.6668H14.6672Z"/>
</svg>
