<svg xmlns="http://www.w3.org/2000/svg" viewBox="0 0 16 16">
<path d="M2 4.5H4C4 5.0515 4.4485 5.5 5 5.5H6C6.5515 5.5 7 5.0515 7 4.5H14C14.276 4.5 14.5 4.2765 14.5 4C14.5 3.7235 14.276 3.5 14 3.5H7C7 2.9485 6.5515 2.5 6 2.5H5C4.4485 2.5 4 2.9485 4 3.5H2C1.724 3.5 1.5 3.7235 1.5 4C1.5 4.2765 1.724 4.5 2 4.5Z"/>
<path d="M14 7.5H11C11 6.9485 10.5515 6.5 10 6.5H9C8.4485 6.5 8 6.9485 8 7.5H2C1.724 7.5 1.5 7.7235 1.5 8C1.5 8.2765 1.724 8.5 2 8.5H8C8 9.0515 8.4485 9.5 9 9.5H10C10.5515 9.5 11 9.0515 11 8.5H14C14.276 8.5 14.5 8.2765 14.5 8C14.5 7.7235 14.276 7.5 14 7.5Z"/>
<path d="M14 11.5H7C7 10.9485 6.5515 10.5 6 10.5H5C4.4485 10.5 4 10.9485 4 11.5H2C1.724 11.5 1.5 11.7235 1.5 12C1.5 12.2765 1.724 12.5 2 12.5H4C4 13.0515 4.4485 13.5 5 13.5H6C6.5515 13.5 7 13.0515 7 12.5H14C14.276 12.5 14.5 12.2765 14.5 12C14.5 11.7235 14.276 11.5 14 11.5Z"/>
</svg>
