<svg xmlns="http://www.w3.org/2000/svg" viewBox="0 0 16 16">
<path d="M11.375 2C10.7422 2.00074 10.1163 2.13111 9.53582 2.38307C8.95536 2.63503 8.43267 3.00325 8 3.465C7.36593 2.78828 6.54307 2.31779 5.63823 2.11463C4.7334 1.91147 3.78839 1.985 2.92587 2.3257C2.06336 2.66639 1.32319 3.2585 0.801436 4.02517C0.279685 4.79183 0.000456575 5.69764 0 6.625C0 11.23 7.4275 15.75 7.75 15.9275C7.82777 15.9742 7.91678 15.9989 8.0075 15.9989C8.09822 15.9989 8.18723 15.9742 8.265 15.9275C8.5725 15.75 16 11.23 16 6.625C15.9987 5.39878 15.511 4.22316 14.6439 3.35609C13.7768 2.48902 12.6012 2.00132 11.375 2ZM8 14.91C6.7075 14.085 1 10.23 1 6.625C1.00064 5.85499 1.24646 5.10518 1.70184 4.48425C2.15721 3.86332 2.79848 3.40352 3.53271 3.1715C4.26693 2.93948 5.05597 2.94728 5.78546 3.19379C6.51495 3.44029 7.147 3.91268 7.59 4.5425C7.63615 4.60801 7.69738 4.66147 7.76851 4.69837C7.83965 4.73527 7.91861 4.75454 7.99875 4.75454C8.07889 4.75454 8.15785 4.73527 8.22899 4.69837C8.30012 4.66147 8.36135 4.60801 8.4075 4.5425C8.85013 3.9116 9.48232 3.43819 10.2123 3.19099C10.9423 2.94379 11.732 2.93568 12.4669 3.16782C13.2018 3.39997 13.8436 3.86029 14.2991 4.48197C14.7546 5.10364 15.0001 5.85431 15 6.625C15 10.2275 9.2925 14.0825 8 14.91Z"/>
</svg>
