<svg xmlns="http://www.w3.org/2000/svg" viewBox="0 0 16 16">
<path d="M14.9556 6.87499L11.8411 9.91099L12.5766 14.199C12.6086 14.3865 12.5316 14.576 12.3776 14.688C12.2906 14.7515 12.1871 14.7835 12.0836 14.7835C12.0041 14.7835 11.9241 14.7645 11.8511 14.726L8.00008 12.7015L4.14958 14.7255C3.98158 14.8145 3.77708 14.8 3.62308 14.6875C3.46908 14.5755 3.39208 14.386 3.42408 14.1985L4.15958 9.91049L1.04458 6.87499C0.908578 6.74199 0.859078 6.54299 0.918078 6.36249C0.977078 6.18199 1.13358 6.04949 1.32208 6.02199L5.62658 5.39699L7.55158 1.49599C7.72008 1.15449 8.28008 1.15449 8.44858 1.49599L10.3736 5.39699L14.6781 6.02199C14.8666 6.04949 15.0231 6.18149 15.0821 6.36249C15.1411 6.54349 15.0916 6.74149 14.9556 6.87499Z"/>
</svg>
