<svg xmlns="http://www.w3.org/2000/svg" viewBox="0 0 12 14"><path d="M4.691 12.996c.131.16.314.257.51.272a.71.71 0 0 0 .538-.197.879.879 0 0 0 .093-1.147L1.742 6.69l4.09-5.235A.879.879 0 0 0 5.739.308.71.71 0 0 0 5.2.112a.728.728 0 0 0-.51.272l-4.51 5.77A.871.871 0 0 0 0 6.69c0 .196.064.386.18.536zm6 0c.131.16.314.257.51.272a.71.71 0 0 0 .538-.197.852.852 0 0 0 .26-.553.879.879 0 0 0-.167-.594L7.742 6.69l4.09-5.235a.879.879 0 0 0-.093-1.147.71.71 0 0 0-.538-.196.728.728 0 0 0-.51.272l-4.51 5.77A.871.871 0 0 0 6 6.69c0 .196.064.386.18.536z"/></svg>