<svg xmlns="http://www.w3.org/2000/svg" viewBox="0 0 20 21" >
<path d="M10 7.27272C7.99091 7.27272 6.36364 8.9 6.36364 10.9091C6.36364 12.9182 7.99091 14.5455 10 14.5455C12.0091 14.5455 13.6364 12.9182 13.6364 10.9091C13.6364 8.9 12.0091 7.27272 10 7.27272ZM18.1273 10C17.7091 6.20909 14.7 3.2 10.9091 2.78182V0.909088H9.09091V2.78182C5.3 3.2 2.29091 6.20909 1.87273 10H0V11.8182H1.87273C2.29091 15.6091 5.3 18.6182 9.09091 19.0364V20.9091H10.9091V19.0364C14.7 18.6182 17.7091 15.6091 18.1273 11.8182H20V10H18.1273V10ZM10 17.2727C6.48182 17.2727 3.63636 14.4273 3.63636 10.9091C3.63636 7.39091 6.48182 4.54545 10 4.54545C13.5182 4.54545 16.3636 7.39091 16.3636 10.9091C16.3636 14.4273 13.5182 17.2727 10 17.2727Z"/>
</svg>
