<svg xmlns="http://www.w3.org/2000/svg" viewBox="0 0 12 14"><path d="M7.31.674A.728.728 0 0 0 6.8.402a.71.71 0 0 0-.537.196.879.879 0 0 0-.093 1.147l4.09 5.235-4.09 5.234a.879.879 0 0 0 .093 1.147.71.71 0 0 0 .538.197.728.728 0 0 0 .51-.272l4.51-5.77c.116-.15.18-.34.18-.536a.871.871 0 0 0-.18-.536zm-6 0A.728.728 0 0 0 .8.402a.71.71 0 0 0-.537.196.852.852 0 0 0-.26.553.879.879 0 0 0 .167.594L4.26 6.98.17 12.214a.879.879 0 0 0-.167.594c.017.215.11.413.26.553a.71.71 0 0 0 .538.197.728.728 0 0 0 .51-.272l4.51-5.77c.116-.15.18-.34.18-.536a.871.871 0 0 0-.18-.536z"/></svg>