<svg xmlns="http://www.w3.org/2000/svg" viewBox="0 0 16 16">
<path fill-rule="evenodd" clip-rule="evenodd" d="M7.80852 15.109C7.8692 15.1342 7.93429 15.147 7.99999 15.1467C8.06568 15.147 8.13077 15.1342 8.19145 15.109C8.25212 15.0838 8.30716 15.0467 8.35332 15L12.1933 11.16C13.0237 10.3304 13.5894 9.27324 13.8189 8.12212C14.0483 6.97099 13.9312 5.77768 13.4823 4.69315C13.0334 3.60862 12.2729 2.6816 11.297 2.02936C10.3211 1.37713 9.17375 1.02899 7.99999 1.02899C6.82622 1.02899 5.67883 1.37713 4.70297 2.02936C3.7271 2.6816 2.96661 3.60862 2.51772 4.69315C2.06882 5.77768 1.95167 6.97099 2.18111 8.12212C2.41054 9.27324 2.97625 10.3304 3.80665 11.16L7.64665 15C7.69282 15.0467 7.74785 15.0838 7.80852 15.109ZM5.26098 2.86584C6.07163 2.32371 7.02477 2.03401 7.99999 2.03332C8.9752 2.03401 9.92834 2.32371 10.739 2.86584C11.5496 3.40797 12.1814 4.1782 12.5545 5.07922C12.9276 5.98024 13.0253 6.97164 12.8353 7.92815C12.6452 8.88467 12.1759 9.7634 11.4867 10.4533L7.99999 13.94L4.51332 10.4533C3.82408 9.7634 3.35478 8.88467 3.16471 7.92815C2.97464 6.97164 3.07233 5.98024 3.44544 5.07922C3.81855 4.1782 4.45033 3.40797 5.26098 2.86584ZM6.61107 8.74533C7.0222 9.02003 7.50554 9.16666 8 9.16666C8.66304 9.16666 9.29892 8.90326 9.76776 8.43442C10.2366 7.96558 10.5 7.3297 10.5 6.66666C10.5 6.1722 10.3534 5.68885 10.0787 5.27773C9.80396 4.86661 9.41352 4.54618 8.9567 4.35696C8.49989 4.16774 7.99722 4.11823 7.51227 4.21469C7.02732 4.31116 6.58186 4.54926 6.23223 4.89889C5.8826 5.24852 5.6445 5.69398 5.54804 6.17893C5.45157 6.66388 5.50108 7.16655 5.6903 7.62337C5.87952 8.08018 6.19995 8.47063 6.61107 8.74533ZM7.16664 5.41945C7.41332 5.25463 7.70333 5.16666 8 5.16666C8.39782 5.16666 8.77935 5.32469 9.06066 5.606C9.34196 5.8873 9.49999 6.26883 9.49999 6.66666C9.49999 6.96333 9.41202 7.25334 9.2472 7.50001C9.08238 7.74669 8.84811 7.93894 8.57402 8.05248C8.29993 8.16601 7.99833 8.19571 7.70736 8.13784C7.41639 8.07996 7.14912 7.9371 6.93934 7.72732C6.72956 7.51754 6.5867 7.25026 6.52882 6.95929C6.47094 6.66832 6.50065 6.36672 6.61418 6.09263C6.72771 5.81854 6.91997 5.58428 7.16664 5.41945Z"/>
</svg>
