<svg xmlns="http://www.w3.org/2000/svg" viewBox="0 0 16 16">
<path d="M11.375 2C10.7422 2.00074 10.1163 2.13111 9.53582 2.38307C8.95536 2.63503 8.43267 3.00325 8 3.465C7.36593 2.78828 6.54307 2.31779 5.63823 2.11463C4.7334 1.91147 3.78839 1.985 2.92587 2.3257C2.06336 2.66639 1.32319 3.2585 0.801436 4.02517C0.279685 4.79183 0.000456575 5.69764 0 6.625C0 11.23 7.4275 15.75 7.75 15.9275C7.82777 15.9742 7.91678 15.9989 8.0075 15.9989C8.09822 15.9989 8.18723 15.9742 8.265 15.9275C8.5725 15.75 16 11.23 16 6.625C15.9987 5.39878 15.511 4.22316 14.6439 3.35609C13.7768 2.48902 12.6012 2.00132 11.375 2Z"/>
</svg>
