<svg xmlns="http://www.w3.org/2000/svg" viewBox="0 0 17 16" >
<path d="M8.49995 10.6667C8.36329 10.6667 8.23262 10.6107 8.13795 10.512L4.63795 6.84533C4.33462 6.52733 4.56195 6 4.99995 6H6.83329V5.16667C6.83329 2.318 9.15129 0 12 0C12.276 0 12.5 0.224 12.5 0.5C12.5 0.776 12.276 1 12 1C10.9886 1 10.1666 1.822 10.1666 2.83333V6H12C12.438 6 12.6653 6.52733 12.362 6.84533L8.86195 10.512C8.76729 10.6107 8.63662 10.6667 8.49995 10.6667Z"/>
<path d="M14.5 12H2.5C1.39733 12 0.5 12.8973 0.5 14C0.5 15.1027 1.39733 16 2.5 16H14.5C15.6027 16 16.5 15.1027 16.5 14C16.5 12.8973 15.6027 12 14.5 12ZM14.5 15H7.83333V13H14.5C15.0513 13 15.5 13.4487 15.5 14C15.5 14.5513 15.0513 15 14.5 15Z"/>
</svg>
