<svg width="17" height="21" viewBox="0 0 17 21" fill="none" xmlns="http://www.w3.org/2000/svg">
<path d="M2.49743 16.2824L0.0797202 19.8372L0.337049 21L1.5545 20.7517L3.97094 17.1991C3.71361 17.0679 3.45869 16.9278 3.21175 16.7724C2.96131 16.6182 2.7224 16.4531 2.49745 16.2825L2.49743 16.2824ZM12.7333 15.0411C12.7494 15.0094 12.7598 14.9744 12.7747 14.9406C12.8356 14.8125 12.8896 14.6847 12.9332 14.5501C12.94 14.526 12.9436 14.502 12.9516 14.48C12.9965 14.3313 13.0343 14.1848 13.0641 14.0337V14.0107C13.2881 12.7321 12.8976 11.3058 12.004 10.0172L13.2788 8.14246C14.7477 8.32069 16.0181 7.96851 16.629 7.06837C17.6891 5.51192 16.3993 2.9206 13.7519 1.27916C11.1022 -0.363662 8.09784 -0.432609 7.03995 1.12168C6.42659 2.02288 6.60572 3.27307 7.37644 4.48283L6.09923 6.35756C4.50395 6.10274 2.97984 6.34002 1.84636 7.05766C1.83947 7.0598 1.83146 7.06209 1.82681 7.06636C1.69478 7.15166 1.56611 7.24581 1.44546 7.34423C1.42591 7.35949 1.403 7.37383 1.38681 7.38909C1.27433 7.48095 1.17323 7.5838 1.07549 7.68665C1.05257 7.71289 1.02037 7.73593 0.998576 7.76324C0.876798 7.89554 0.76432 8.03562 0.665456 8.18439C-0.924201 10.5174 0.432319 14.0482 3.68951 16.0694C6.9491 18.0906 10.8793 17.8347 12.4656 15.5017C12.5655 15.354 12.6574 15.1999 12.7331 15.0412L12.7333 15.0411ZM11.7973 4.14943C10.7785 3.51832 10.2812 2.52294 10.689 1.9225C11.0955 1.3242 12.2522 1.35151 13.2685 1.98262C14.2895 2.61373 14.7822 3.61122 14.3769 4.20956C13.9715 4.80785 12.8172 4.78055 11.7973 4.14943Z" fill="#C23B22"/>
</svg>
