<svg width="18" height="18" viewBox="0 0 18 18" fill="none" xmlns="http://www.w3.org/2000/svg">
<path d="M10.5919 9.00022L17.6702 1.92163C18.1099 1.48221 18.1099 0.76925 17.6702 0.329839C17.2304 -0.109946 16.5183 -0.109946 16.0785 0.329839L9.00018 7.40844L1.92153 0.329839C1.48177 -0.109946 0.76959 -0.109946 0.329824 0.329839C-0.109941 0.76925 -0.109941 1.48221 0.329824 1.92163L7.40847 9.00022L0.329824 16.0789C-0.109941 16.5182 -0.109941 17.2312 0.329824 17.6706C0.549706 17.89 0.83788 18 1.12568 18C1.41348 18 1.70166 17.89 1.92153 17.6703L9.00018 10.5916L16.0785 17.6703C16.2984 17.89 16.5865 18 16.8743 18C17.1621 18 17.4503 17.89 17.6702 17.6703C18.1099 17.2308 18.1099 16.5178 17.6702 16.0784L10.5919 9.00022Z" fill="#C23B22"/>
</svg>
